<svg xmlns="http://www.w3.org/2000/svg" viewBox="0 0 900 180" role="img" aria-labelledby="title desc"><title id="title">ROWBOAT CONSULTING SERVICES</title><desc id="desc">ROWBOAT CONSULTING SERVICES company logo</desc><rect width="900" height="180" fill="none"/><g font-family="Georgia, 'Times New Roman', serif" font-weight="900" fill="#3d3d3d"><text x="18" y="82" font-size="62" letter-spacing="1.5">ROWBOAT</text><text x="485" y="82" font-size="62" letter-spacing="1.5">CONSULTING</text></g><g transform="translate(402 8)"><path d="M48 0 87 18 98 61 75 101 48 132 21 101 0 61 11 18Z" fill="#4f8d97" stroke="#3d3d3d" stroke-width="5"/><path d="M11 51h76M18 31h61M22 74h52" fill="none" stroke="#d8e0df" stroke-width="4"/><path d="M48 6v88M28 14c9 18 11 39 8 68M68 14c-9 18-11 39-8 68" fill="none" stroke="#3d3d3d" stroke-width="3"/><path d="M51 67h21v31H51z" fill="#8c9a9c" stroke="#3d3d3d" stroke-width="3"/><path d="M70 56h14v42H70z" fill="#b6c1c0" stroke="#3d3d3d" stroke-width="3"/></g><path d="M35 148H350M550 148H865" stroke="#4f8d97" stroke-width="2"/><text x="450" y="160" text-anchor="middle" font-family="Georgia, 'Times New Roman', serif" font-size="30" letter-spacing="5" fill="#4f8d97">SERVICES</text></svg>